HIERARCHY
ROOT Hips
{
	OFFSET 0.000000 0.000000 0.000000
	CHANNELS 6 Xposition Yposition Zposition Zrotation Yrotation Xrotation 
	JOINT LHipJoint
	{
		OFFSET 0.000000 0.000000 0.000000
		CHANNELS 3 Zrotation Yrotation Xrotation
		JOINT LeftUpLeg
		{
			OFFSET 1.363060 -1.794630 0.839290
			CHANNELS 3 Zrotation Yrotation Xrotation
			JOINT LeftLeg
			{
				OFFSET 2.448110 -6.726130 0.000000
				CHANNELS 3 Zrotation Yrotation Xrotation
				JOINT LeftFoot
				{
					OFFSET 2.562200 -7.039590 0.000000
					CHANNELS 3 Zrotation Yrotation Xrotation
					JOINT LeftToeBase
					{
						OFFSET 0.157640 -0.433110 2.322550
						CHANNELS 3 Zrotation Yrotation Xrotation
						End Site
						{
							OFFSET 0.000000 0.000000 0.000000
						}
					}
				}
			}
		}
	}
	JOINT RHipJoint
	{
		OFFSET 0.000000 0.000000 0.000000
		CHANNELS 3 Zrotation Yrotation Xrotation
		JOINT RightUpLeg
		{
			OFFSET -1.305520 -1.794630 0.839290
			CHANNELS 3 Zrotation Yrotation Xrotation
			JOINT RightLeg
			{
				OFFSET -2.542530 -6.985550 0.000000
				CHANNELS 3 Zrotation Yrotation Xrotation
				JOINT RightFoot
				{
					OFFSET -2.568260 -7.056230 0.000000
					CHANNELS 3 Zrotation Yrotation Xrotation
					JOINT RightToeBase
					{
						OFFSET -0.164730 -0.452590 2.363150
						CHANNELS 3 Zrotation Yrotation Xrotation
						End Site
						{
							OFFSET 0.000000 0.000000 0.000000
						}
					}
				}
			}
		}
	}
	JOINT LowerBack
	{
		OFFSET 0.000000 0.000000 0.000000
		CHANNELS 3 Zrotation Yrotation Xrotation
		JOINT Spine
		{
			OFFSET 0.028270 2.035590 -0.193380
			CHANNELS 3 Zrotation Yrotation Xrotation
			JOINT Spine1
			{
				OFFSET 0.056720 2.048850 -0.042750
				CHANNELS 3 Zrotation Yrotation Xrotation
				JOINT Neck
				{
					OFFSET 0.000000 0.000000 0.000000
					CHANNELS 3 Zrotation Yrotation Xrotation
					JOINT Neck1
					{
						OFFSET -0.054170 1.746240 0.172020
						CHANNELS 3 Zrotation Yrotation Xrotation
						JOINT Head
						{
							OFFSET 0.104070 1.761360 -0.123970
							CHANNELS 3 Zrotation Yrotation Xrotation
							End Site
							{
								OFFSET 0.000000 0.000000 0.000000
							}
						}
					}
				}
				JOINT LeftShoulder
				{
					OFFSET 0.000000 0.000000 0.000000
					CHANNELS 3 Zrotation Yrotation Xrotation
					JOINT LeftArm
					{
						OFFSET 3.362410 1.200890 -0.311210
						CHANNELS 3 Zrotation Yrotation Xrotation
						JOINT LeftForeArm
						{
							OFFSET 4.983000 -0.000000 -0.000000
							CHANNELS 3 Zrotation Yrotation Xrotation
							JOINT LeftHand
							{
								OFFSET 3.483560 -0.000000 -0.000000
								CHANNELS 3 Zrotation Yrotation Xrotation
								JOINT LeftFingerBase
								{
									OFFSET 0.000000 0.000000 0.000000
									CHANNELS 3 Zrotation Yrotation Xrotation
									JOINT LeftHandIndex1
									{
										OFFSET 0.715260 -0.000000 -0.000000
										CHANNELS 3 Zrotation Yrotation Xrotation
										End Site
										{
											OFFSET 0.000000 0.000000 0.000000
										}
									}
								}
								JOINT LThumb
								{
									OFFSET 0.000000 0.000000 0.000000
									CHANNELS 3 Zrotation Yrotation Xrotation
									End Site
									{
										OFFSET 0.000000 0.000000 0.000000
									}
								}
							}
						}
					}
				}
				JOINT RightShoulder
				{
					OFFSET 0.000000 0.000000 0.000000
					CHANNELS 3 Zrotation Yrotation Xrotation
					JOINT RightArm
					{
						OFFSET -3.136600 1.374050 -0.404650
						CHANNELS 3 Zrotation Yrotation Xrotation
						JOINT RightForeArm
						{
							OFFSET -5.241900 -0.000000 -0.000000
							CHANNELS 3 Zrotation Yrotation Xrotation
							JOINT RightHand
							{
								OFFSET -3.444170 -0.000000 -0.000000
								CHANNELS 3 Zrotation Yrotation Xrotation
								JOINT RightFingerBase
								{
									OFFSET 0.000000 0.000000 0.000000
									CHANNELS 3 Zrotation Yrotation Xrotation
									JOINT RightHandIndex1
									{
										OFFSET -0.622530 -0.000000 -0.000000
										CHANNELS 3 Zrotation Yrotation Xrotation
										End Site
										{
											OFFSET 0.000000 0.000000 0.000000
										}
									}
								}
								JOINT RThumb
								{
									OFFSET 0.000000 0.000000 0.000000
									CHANNELS 3 Zrotation Yrotation Xrotation
									End Site
									{
										OFFSET 0.000000 0.000000 0.000000
									}
								}
							}
						}
					}
				}
			}
		}
	}
}
MOTION
Frames: 12
Frame Time: 0.008333
3.989460 18.027109 33.397449 177.393841 -0.089250 -169.441708 -3.206314 2.601998 3.062204 -23.975979 -4.750782 1.794944 1.225892 5.564170 17.118693 0.320737 0.027821 -9.831662 1.353200 -7.364000 -20.798400 -0.455990 -3.756366 2.895294 11.754889 21.316969 -35.250535 -3.738133 -7.407080 26.881301 0.080301 -8.283895 -10.156662 -0.058400 -1.560000 4.291200 -1.615896 -1.947690 -0.958325 -0.473253 -2.937944 2.525819 -1.100662 -1.538308 -4.096679 -2.271850 -4.356061 -16.719847 -2.315680 -5.305024 10.138524 -0.881500 -2.845100 6.350400 -3.181518 -2.355537 0.278862 -84.046197 -11.898731 32.731989 24.321300 -28.715688 -6.658073 -0.025653 -1.254878 -12.104784 28.018701 18.022950 10.124700 -7.125000 0.000000 0.000000 0.023700 51.731900 0.003900 1.480049 1.939471 0.219995 93.268620 -14.431161 -15.089387 -13.882932 19.448202 -2.009519 0.075464 -0.267467 15.574442 -15.408024 26.542426 -7.144700 7.125000 0.000000 0.000000 8.654300 -2.614300 8.347600 
3.983241 18.024143 33.236795 177.528493 -0.275566 -169.503787 -3.195110 2.644103 3.158042 -23.722120 -4.307082 2.927021 1.081779 5.140651 15.810083 0.258102 0.112917 -8.928235 1.117200 -6.714700 -18.872800 -0.490402 -3.795733 2.883865 11.501112 22.420408 -34.473543 -3.315142 -6.548304 24.187755 0.077795 -9.077345 -11.497383 -0.145700 -2.460100 6.779000 -1.372738 -1.857093 -1.479432 -0.595255 -2.805936 3.369766 -1.244506 -1.496042 -3.631481 -1.830458 -4.445166 -17.495251 -2.135475 -5.522467 10.267858 -0.936200 -2.917500 6.505400 -3.119993 -2.403361 0.263628 -83.632060 -12.892622 33.835020 24.638750 -29.113415 -6.872710 -0.012200 -1.266604 -11.953417 28.164269 19.081872 10.710100 -7.125000 0.000000 0.000000 -0.058100 52.940900 -0.011300 1.457396 1.977363 0.179075 93.784686 -13.655019 -16.441711 -13.830459 19.443797 -1.994507 0.105720 -0.264748 16.210743 -18.896405 25.634269 -8.570300 7.125000 0.000000 0.000000 6.456000 -2.994700 6.149600 
3.983911 18.019454 33.076906 177.604424 -0.428168 -169.601769 -3.130369 2.680190 3.237918 -23.445804 -3.266771 3.722320 0.983738 4.780790 14.733830 0.251612 -0.376782 -7.754574 1.187300 -6.914900 -19.463600 -0.478898 -3.834221 2.874488 10.983462 23.797914 -33.767802 -2.984164 -5.819511 21.984553 0.152243 -10.181880 -11.972588 -0.047600 -1.407900 3.872000 -1.624329 -2.246266 -1.845749 0.088945 -3.291282 3.855218 -1.031998 -1.738096 -3.294824 -2.676933 -4.068279 -18.378268 -1.260916 -4.843021 11.073003 -0.547400 -2.553900 6.914200 -3.129838 -2.421095 0.261098 -83.647173 -13.347088 33.400716 25.024925 -29.565406 -7.094307 0.006600 -1.260241 -12.017160 28.077923 18.700367 10.478300 -7.125000 0.000000 0.000000 -0.087100 52.502400 -0.016100 1.390596 2.023316 0.182430 93.227658 -13.559884 -14.799535 -14.067706 19.758016 -2.071540 0.104073 -0.267107 15.615118 -18.418620 26.432540 -8.578100 7.125000 0.000000 0.000000 6.822700 -2.255600 6.596300 
3.986303 18.015723 32.915870 177.725808 -0.591292 -169.695538 -3.062407 2.711263 3.299988 -23.114210 -2.288407 4.561189 0.888156 4.410130 13.628981 0.238437 -0.760191 -6.602542 1.329000 -7.300300 -20.608100 -0.468185 -3.862407 2.844622 10.538369 25.088744 -32.981094 -2.667506 -5.083904 19.776524 0.220930 -11.291110 -12.718384 -0.013400 -0.746300 2.050900 -1.861359 -2.495645 -1.849239 0.754820 -3.598244 4.073199 -0.785984 -1.874707 -3.178213 -2.553094 -3.986223 -17.439586 -2.087958 -4.769779 9.490200 -0.741600 -2.593000 6.336300 -3.161632 -2.477864 0.234736 -83.685617 -13.675199 33.399523 25.399728 -30.001232 -7.316421 -0.011122 -1.264915 -12.237091 29.238872 18.694250 10.991200 -7.125000 0.000000 0.000000 1.145000 52.733900 0.217900 1.310474 2.013405 0.151770 92.713047 -13.943383 -12.418278 -14.492630 20.320710 -2.215401 0.118149 -0.257953 13.540050 -18.657499 26.448099 -8.698900 7.125000 0.000000 0.000000 6.678300 -2.206000 6.460800 
3.982762 18.013426 32.752728 177.492134 -0.961057 -169.711744 -3.069332 2.728009 3.328377 -23.123077 -1.950989 5.550813 0.805213 4.067974 12.606027 0.200726 -0.787406 -5.631156 1.423200 -7.544000 -21.337400 -0.494815 -3.887875 2.785023 9.698239 26.150862 -32.401426 -2.415421 -4.493481 18.026678 0.237055 -12.299051 -14.127751 -0.043400 -1.345200 3.699100 -1.829851 -2.421772 -1.647217 0.437115 -3.517425 3.904940 -0.790370 -1.832280 -3.299976 -2.043844 -4.193440 -16.577992 -2.396121 -5.194955 8.688442 -0.897100 -2.800500 5.968400 -3.114499 -2.478791 0.234325 -83.407619 -13.723262 34.665155 25.719527 -30.399780 -7.563079 -0.018789 -1.259314 -12.424169 30.223274 18.611503 11.385200 -7.125000 0.000000 0.000000 2.203000 52.838000 0.425000 1.329504 1.997705 0.140973 93.139852 -14.446057 -12.027464 -14.823745 20.803307 -2.336735 0.136087 -0.247049 12.105002 -19.498883 25.690781 -8.876400 7.125000 0.000000 0.000000 6.089900 -2.847800 5.813200 
3.977787 18.005676 32.584802 177.195233 -1.401561 -169.778088 -3.070263 2.748089 3.382649 -23.094573 -1.324532 6.390566 0.750481 3.772584 11.748573 0.201869 -1.221564 -4.479507 1.563600 -7.890800 -22.382900 -0.505353 -3.917617 2.761729 8.861120 27.028968 -31.900890 -2.232566 -4.059605 16.759457 0.225978 -13.178137 -15.663179 -0.143800 -2.444100 6.734700 -1.822104 -2.524336 -1.870483 0.235520 -3.666245 4.190581 -0.816998 -1.917728 -3.066581 -2.181645 -4.255036 -16.478421 -1.952170 -5.294470 8.512680 -0.765600 -2.823200 5.924700 -3.050968 -2.490150 0.239882 -83.250545 -13.975101 35.244001 26.089699 -30.841035 -7.902510 0.168157 -1.206827 -12.629612 24.595280 15.771566 7.701000 -7.125000 0.000000 0.000000 -3.121400 48.655500 -0.281700 1.340192 2.004449 0.117743 93.359999 -14.118315 -12.772665 -14.832481 20.858459 -2.345495 0.125285 -0.250293 12.503850 -18.434145 25.733142 -8.377600 7.125000 0.000000 0.000000 6.743500 -2.978500 6.429300 
3.976639 17.989123 32.418024 177.154670 -1.781668 -169.859485 -3.032391 2.772791 3.439213 -22.790920 -0.577403 7.065388 0.718671 3.559050 11.124136 0.229263 -1.916323 -3.276213 1.501100 -7.738700 -21.923300 -0.484135 -3.936662 2.764563 8.467896 27.710379 -31.597588 -2.125270 -3.799293 16.021889 0.229806 -13.899399 -16.778757 -0.173000 -2.679400 7.387500 -1.911312 -2.704093 -2.216650 0.539030 -3.891061 4.692124 -0.753416 -2.038806 -2.744286 -2.626226 -4.191128 -17.177043 -1.379802 -5.116033 9.141545 -0.561200 -2.709500 6.229800 -3.033577 -2.510367 0.232902 -83.179882 -14.409781 35.643356 26.441069 -31.238739 -8.128373 0.155038 -1.215859 -12.767185 25.585168 16.145877 8.230900 -7.125000 0.000000 0.000000 -2.216900 49.234000 -0.231600 1.307246 2.036700 0.106219 93.264300 -13.390106 -14.271773 -14.637073 20.645127 -2.279261 0.098724 -0.265518 14.434203 -16.940763 26.753928 -7.944500 7.125000 0.000000 0.000000 7.743900 -2.168400 7.515100 
3.977308 17.966158 32.252778 177.216652 -1.976533 -169.795726 -2.992339 2.783421 3.454096 -22.538119 -0.262688 7.619001 0.702984 3.453589 10.795340 0.226680 -2.176607 -2.310673 1.506900 -7.753100 -21.966500 -0.462995 -3.940486 2.776352 8.594396 27.714716 -31.703248 -2.086559 -3.689254 15.700496 0.236335 -14.004028 -16.913520 -0.083600 -1.864500 5.131400 -1.977485 -2.754301 -2.408907 0.897782 -3.943460 4.830718 -0.673002 -2.063619 -2.601713 -2.756455 -4.138834 -17.374878 -1.309301 -5.006460 9.437747 -0.520400 -2.653700 6.348100 -3.035387 -2.521657 0.244403 -83.122633 -14.726048 36.032825 26.715549 -31.563561 -8.401721 0.282090 -1.172885 -12.834089 21.363093 13.962600 5.876100 -7.125000 0.000000 0.000000 -5.917800 46.221200 -0.179000 1.266906 2.049808 0.103575 93.170856 -13.384474 -13.919925 -14.805751 20.896276 -2.340582 0.096677 -0.267431 14.184485 -16.531602 27.137343 -7.845600 7.125000 0.000000 0.000000 8.023500 -1.843700 7.839200 
3.976734 17.943385 32.079589 177.350681 -2.171089 -169.787940 -2.955386 2.782799 3.462071 -22.217486 0.039038 8.078683 0.707683 3.458956 10.778437 0.224856 -2.363313 -1.493352 1.472600 -7.668200 -21.710800 -0.467555 -3.920516 2.795255 9.301215 27.012112 -31.734202 -2.101546 -3.702380 15.675555 0.217649 -13.563110 -16.467747 -0.043900 -1.352900 3.720300 -1.864539 -2.747976 -2.636071 1.107638 -3.926248 4.944630 -0.713336 -2.058872 -2.431719 -2.597096 -4.177958 -16.908407 -1.423200 -5.112433 9.102896 -0.569900 -2.707400 6.189400 -3.032855 -2.552611 0.232069 -83.050259 -14.923812 36.452168 26.971635 -31.838280 -8.542504 0.250658 -1.208142 -12.617870 23.030916 15.767894 7.137300 -7.125000 0.000000 0.000000 -4.712900 48.416900 -0.398100 1.237801 2.055992 0.092758 93.246379 -13.841473 -12.170331 -15.293299 21.559747 -2.520591 0.112558 -0.258896 11.913771 -16.603490 26.903522 -7.819900 7.125000 0.000000 0.000000 7.957200 -2.073800 7.739800 
3.979509 17.919943 31.899990 177.492355 -2.402764 -170.002846 -2.894935 2.779909 3.474209 -21.844890 0.500421 8.518798 0.740153 3.585696 11.113884 0.244739 -2.762411 -0.791507 1.484400 -7.697700 -21.799400 -0.465799 -3.879141 2.790511 10.066272 26.420894 -31.330873 -2.152030 -3.824092 15.950611 0.163188 -13.045270 -16.331080 -0.118000 -2.214200 6.098000 -1.897488 -2.880905 -2.584461 1.582507 -4.083171 4.998868 -0.640869 -2.131160 -2.427578 -2.871774 -4.202671 -16.454430 -1.293206 -5.116544 8.964317 -0.486200 -2.710100 6.095200 -3.056511 -2.556440 0.220445 -83.195705 -14.801020 36.468630 27.230942 -32.121940 -8.730496 0.269816 -1.207249 -12.241497 22.564546 15.517791 6.872100 -7.125000 0.000000 0.000000 -5.129800 48.080200 -0.390800 1.201934 2.054701 0.087259 93.038572 -13.986647 -11.859007 -15.454937 21.781940 -2.577594 0.118524 -0.257542 11.605065 -17.239264 27.028265 -8.166500 7.125000 0.000000 0.000000 7.586300 -1.847200 7.403600 
3.985442 17.892481 31.718094 177.563991 -2.456742 -170.263675 -2.851219 2.783200 3.505585 -21.628954 0.731740 8.996569 0.788830 3.787834 11.668471 0.263397 -3.073439 -0.402124 1.461500 -7.640500 -21.627200 -0.473201 -3.846232 2.795387 10.719463 26.078279 -30.895267 -2.238230 -4.033654 16.524705 0.140692 -12.518703 -15.819504 -0.174600 -2.691300 7.420500 -1.935034 -2.840812 -2.541730 1.851692 -4.018906 5.427672 -0.585003 -2.097180 -2.378035 -2.885241 -4.255450 -16.970692 -1.288866 -5.159152 9.249180 -0.501100 -2.729000 6.249500 -3.058042 -2.554061 0.204421 -83.259196 -14.955833 36.788046 27.577804 -32.504639 -8.969421 0.269522 -1.220229 -11.755076 22.990521 16.095780 7.251000 -7.125000 0.000000 0.000000 -4.865000 48.776500 -0.454100 1.163061 2.058090 0.073355 93.061748 -13.406392 -12.908775 -15.355170 21.696591 -2.541465 0.119960 -0.260473 12.604093 -17.999370 27.112637 -8.568700 7.125000 0.000000 0.000000 7.137800 -1.636200 6.985900 
3.985633 17.868656 31.535050 177.586653 -2.690508 -170.354521 -2.798193 2.770436 3.493126 -21.482149 0.606721 9.400792 0.847128 4.027471 12.322465 0.276307 -3.326225 0.079147 1.268700 -7.139400 -20.129000 -0.476883 -3.817612 2.786566 11.313459 25.560804 -30.703602 -2.347245 -4.305543 17.283316 0.219465 -12.378880 -14.499124 -0.114900 -2.185900 6.019600 -1.959621 -3.009641 -2.499887 2.264682 -4.229394 5.182486 -0.522722 -2.192413 -2.437695 -3.189831 -4.127575 -16.417235 -1.333738 -4.932788 9.322958 -0.440400 -2.632800 6.194500 -3.087299 -2.536584 0.197331 -83.484482 -14.245997 36.612077 28.116509 -33.079824 -9.328213 0.260410 -1.235034 -11.543679 24.021064 16.354875 7.733200 -7.125000 0.000000 0.000000 -3.922200 49.239900 -0.410700 1.142522 2.036645 0.082156 92.767487 -13.621502 -12.541727 -15.438770 21.789522 -2.568959 0.118654 -0.257491 12.319597 -17.949709 27.004147 -8.511300 7.125000 0.000000 0.000000 7.158600 -1.756600 6.991000 
